<svg width="34" height="36" viewBox="0 0 34 36" fill="none" xmlns="http://www.w3.org/2000/svg">
<path d="M34 19.0001C34 20.818 33.8538 22.6006 33.5747 24.3387C32.6505 30.0928 28.0926 34.6507 22.3386 35.5748C20.6004 35.854 18.8178 36.0002 17 36.0002C15.1822 36.0002 13.3996 35.854 11.6614 35.5748C5.90742 34.6507 1.3495 30.0928 0.425331 24.3387C0.146158 22.6006 0 20.818 0 19.0001C0 17.1822 0.146158 15.3996 0.425331 13.6614C1.3495 7.90739 5.90742 3.3495 11.6614 2.42533C13.3996 2.14616 15.1822 2 17 2C18.8178 2 20.6004 2.14616 22.3386 2.42533C28.0926 3.3495 32.6505 7.90739 33.5747 13.6614C33.8538 15.3995 34 17.1822 34 19.0001Z" fill="#0B5CFF"/>
<path d="M34 19.0001C34 20.818 33.8538 22.6006 33.5747 24.3387C32.6505 30.0928 28.0926 34.6507 22.3386 35.5748C20.6004 35.854 18.8178 36.0002 17 36.0002C15.1822 36.0002 13.3996 35.854 11.6614 35.5748C5.90742 34.6507 1.3495 30.0928 0.425331 24.3387C0.146158 22.6006 0 20.818 0 19.0001C0 17.1822 0.146158 15.3996 0.425331 13.6614C1.3495 7.90739 5.90742 3.3495 11.6614 2.42533C13.3996 2.14616 15.1822 2 17 2C18.8178 2 20.6004 2.14616 22.3386 2.42533C28.0926 3.3495 32.6505 7.90739 33.5747 13.6614C33.8538 15.3995 34 17.1822 34 19.0001Z" fill="url(#paint0_radial_239_6974)"/>
<path d="M33.9999 19.0001C33.9999 20.818 33.8537 22.6006 33.5745 24.3387C32.6503 30.0928 28.0925 34.6507 22.3384 35.5748C20.6003 35.854 18.8177 36.0001 16.9999 36.0001C15.1821 36.0001 13.3995 35.854 11.6614 35.5748C5.9073 34.6507 1.34944 30.0928 0.425271 24.3387C0.146098 22.6005 0 20.818 0 19.0001C0 17.1822 0.146098 15.3995 0.425271 13.6614C1.3495 7.9074 5.90736 3.34939 11.6614 2.42527C13.3996 2.1461 15.1821 2 16.9999 2C18.8178 2 20.6004 2.1461 22.3384 2.42527C28.0925 3.34939 32.6504 7.9074 33.5745 13.6614C33.8537 15.3995 33.9999 17.1821 33.9999 19.0001Z" fill="url(#paint1_radial_239_6974)"/>
<g clip-path="url(#clip0_239_6974)">
<path d="M27.1419 12.0068C26.4927 11.7827 25.8138 11.4839 25.3282 10.9765L25.3268 10.9751C24.8498 10.4761 24.5336 9.84896 24.288 9.15976C24.2033 8.92298 23.8674 8.92298 23.7841 9.15976C23.5583 9.80668 23.2407 10.4776 22.7439 10.9751C22.247 11.4726 21.5498 11.7756 20.9048 12.0039C20.6662 12.0885 20.6705 12.4254 20.909 12.5085C21.5667 12.7368 22.2358 13.0483 22.7453 13.5557C23.2548 14.0631 23.5173 14.7255 23.7531 15.3879C23.8392 15.6289 24.1821 15.6219 24.2598 15.3781C24.4771 14.6931 24.7764 14.025 25.2915 13.5191C25.8011 13.0187 26.487 12.7256 27.1391 12.5113C27.3805 12.4324 27.3819 12.0899 27.1419 12.0068Z" fill="white"/>
<path d="M25.4452 18.6724C23.6682 18.0593 21.8107 17.2419 20.4811 15.8522V15.8508C19.177 14.4865 18.3117 12.7712 17.6385 10.884C17.407 10.2357 16.4882 10.2343 16.2595 10.884C15.6385 12.6528 14.7747 14.4893 13.4112 15.8508C12.0477 17.2123 10.1409 18.0424 8.37656 18.6668C7.72447 18.8979 7.73435 19.8197 8.38785 20.0466C10.1874 20.6709 12.028 21.5307 13.4112 22.9119C14.8043 24.303 15.5227 26.1141 16.1692 27.928C16.4049 28.589 17.3449 28.5693 17.5566 27.9012C18.1508 26.0253 18.9878 24.179 20.3809 22.8118C21.774 21.4447 23.6512 20.6428 25.4353 20.055C26.0973 19.8366 26.1029 18.8993 25.4452 18.6724Z" fill="white"/>
</g>
<defs>
<radialGradient id="paint0_radial_239_6974" cx="0" cy="0" r="1" gradientUnits="userSpaceOnUse" gradientTransform="translate(17 17.0245) scale(22.9204 19.1565)">
<stop offset="0.82" stop-color="#0B5CFF" stop-opacity="0"/>
<stop offset="0.98" stop-color="#003CB3"/>
</radialGradient>
<radialGradient id="paint1_radial_239_6974" cx="0" cy="0" r="1" gradientUnits="userSpaceOnUse" gradientTransform="translate(16.9999 20.9685) scale(22.9122 19.1497)">
<stop offset="0.8" stop-color="#0B5CFF" stop-opacity="0"/>
<stop offset="1" stop-color="#71A5F1"/>
</radialGradient>
<clipPath id="clip0_239_6974">
<rect width="21.8571" height="21.8573" fill="white" transform="translate(6.07129 8.07141)"/>
</clipPath>
</defs>
</svg>
