<svg width="35" height="34" viewBox="0 0 35 34" fill="none" xmlns="http://www.w3.org/2000/svg">
<path d="M34.1113 17C34.1113 18.8179 33.9652 20.6005 33.686 22.3386C32.7618 28.0926 28.2039 32.6505 22.4499 33.5747C20.7117 33.8538 18.9291 34 17.1113 34C15.2935 34 13.5109 33.8538 11.7728 33.5747C6.01875 32.6505 1.46083 28.0926 0.53666 22.3386C0.257486 20.6005 0.111328 18.8179 0.111328 17C0.111328 15.1821 0.257486 13.3995 0.53666 11.6614C1.46083 5.90736 6.01875 1.3495 11.7728 0.425329C13.5109 0.146156 15.2935 0 17.1113 0C18.9291 0 20.7117 0.146156 22.4499 0.425329C28.2039 1.3495 32.7618 5.90736 33.686 11.6614C33.9652 13.3995 34.1113 15.1821 34.1113 17Z" fill="#0B5CFF"/>
<path d="M34.1113 17C34.1113 18.8179 33.9652 20.6005 33.686 22.3386C32.7618 28.0926 28.2039 32.6505 22.4499 33.5747C20.7117 33.8538 18.9291 34 17.1113 34C15.2935 34 13.5109 33.8538 11.7728 33.5747C6.01875 32.6505 1.46083 28.0926 0.53666 22.3386C0.257486 20.6005 0.111328 18.8179 0.111328 17C0.111328 15.1821 0.257486 13.3995 0.53666 11.6614C1.46083 5.90736 6.01875 1.3495 11.7728 0.425329C13.5109 0.146156 15.2935 0 17.1113 0C18.9291 0 20.7117 0.146156 22.4499 0.425329C28.2039 1.3495 32.7618 5.90736 33.686 11.6614C33.9652 13.3995 34.1113 15.1821 34.1113 17Z" fill="url(#paint0_radial_5312_25328)"/>
<path d="M34.1112 17C34.1112 18.8179 33.9651 20.6005 33.6859 22.3386C32.7617 28.0926 28.2038 32.6505 22.4498 33.5746C20.7116 33.8538 18.9291 33.9999 17.1113 33.9999C15.2935 33.9999 13.5109 33.8538 11.7727 33.5746C6.01863 32.6505 1.46077 28.0926 0.536599 22.3386C0.257426 20.6004 0.111328 18.8179 0.111328 17C0.111328 15.1822 0.257426 13.3995 0.536599 11.6613C1.46083 5.90737 6.01869 1.34938 11.7727 0.425271C13.5109 0.146098 15.2934 0 17.1113 0C18.9291 0 20.7117 0.146098 22.4498 0.425271C28.2039 1.34938 32.7617 5.90737 33.6859 11.6613C33.9651 13.3995 34.1112 15.182 34.1112 17Z" fill="url(#paint1_radial_5312_25328)"/>
<g clip-path="url(#clip0_5312_25328)">
<path d="M20.7559 15.4824C17.7379 15.4824 15.2916 17.9289 15.2916 20.9466C15.2916 23.9643 17.7379 26.4108 20.7559 26.4108C23.7738 26.4108 26.2202 23.9643 26.2202 20.9466C26.2202 17.9289 23.7738 15.4824 20.7559 15.4824ZM22.9021 23.0936C22.7835 23.2122 22.6281 23.2715 22.4728 23.2715C22.3174 23.2715 22.1621 23.2122 22.0435 23.0936L20.3264 21.3754C20.2126 21.2616 20.1486 21.1074 20.1486 20.9461V17.9105C20.1486 17.5749 20.4201 17.3034 20.7557 17.3034C21.0913 17.3034 21.3629 17.5749 21.3629 17.9105V20.6948L22.9021 22.2351C23.1392 22.4723 23.1392 22.8565 22.9021 23.0936ZM20.4521 11.8392C20.1166 11.8392 19.845 11.5677 19.845 11.2321V7.58931C19.845 7.25373 20.1166 6.98218 20.4521 6.98218C20.7877 6.98218 21.0593 7.25373 21.0593 7.58931V11.2321C21.0593 11.5677 20.7877 11.8392 20.4521 11.8392ZM13.7736 11.8392C13.438 11.8392 13.1664 11.5677 13.1664 11.2321V7.58931C13.1664 7.25373 13.438 6.98218 13.7736 6.98218C14.1092 6.98218 14.3807 7.25373 14.3807 7.58931V11.2321C14.3807 11.5677 14.1092 11.8392 13.7736 11.8392ZM22.5773 8.80402H22.2736V11.2321C22.2736 12.2377 21.4577 13.0535 20.4521 13.0535C19.4466 13.0535 18.6307 12.2377 18.6307 11.2321V8.80402H15.595V11.2321C15.595 12.2377 14.7791 13.0535 13.7736 13.0535C12.768 13.0535 11.9521 12.2377 11.9521 11.2321V8.80402H11.6487C9.63682 8.80402 8.00586 10.4349 8.00586 12.4468V22.1609C8.00586 24.1727 9.63682 25.8036 11.6487 25.8036H15.0688C15.4041 25.8036 15.6759 25.5318 15.6759 25.1965C15.6759 24.8611 15.4041 24.5894 15.0688 24.5894L11.6487 24.5892C10.3076 24.5892 9.22015 23.5018 9.22015 22.1607V16.6965C9.22015 15.3554 10.3076 14.268 11.6487 14.268H22.5773C23.4745 14.268 24.25 14.7597 24.6695 15.4838C24.7196 15.5703 24.7902 15.6427 24.8687 15.7043C24.8744 15.7088 24.88 15.7131 24.8857 15.7175C25.4258 16.144 26.2202 15.7509 26.2202 15.0628V12.4468C26.2202 10.435 24.5892 8.80402 22.5773 8.80402Z" fill="white"/>
</g>
<defs>
<radialGradient id="paint0_radial_5312_25328" cx="0" cy="0" r="1" gradientUnits="userSpaceOnUse" gradientTransform="translate(17.1113 15.0244) scale(22.9205 19.1565)">
<stop offset="0.82" stop-color="#0B5CFF" stop-opacity="0"/>
<stop offset="0.98" stop-color="#003CB3"/>
</radialGradient>
<radialGradient id="paint1_radial_5312_25328" cx="0" cy="0" r="1" gradientUnits="userSpaceOnUse" gradientTransform="translate(17.1113 18.9684) scale(22.9122 19.1496)">
<stop offset="0.8" stop-color="#0B5CFF" stop-opacity="0"/>
<stop offset="1" stop-color="#71A5F1"/>
</radialGradient>
<clipPath id="clip0_5312_25328">
<rect width="21.8572" height="21.8571" fill="white" transform="translate(6.18359 6.07141)"/>
</clipPath>
</defs>
</svg>
