<svg width="35" height="34" viewBox="0 0 35 34" fill="none" xmlns="http://www.w3.org/2000/svg">
<path d="M34.1113 17C34.1113 18.8179 33.9652 20.6005 33.686 22.3386C32.7618 28.0926 28.2039 32.6505 22.4499 33.5747C20.7117 33.8538 18.9291 34 17.1113 34C15.2935 34 13.5109 33.8538 11.7728 33.5747C6.01875 32.6505 1.46083 28.0926 0.53666 22.3386C0.257486 20.6005 0.111328 18.8179 0.111328 17C0.111328 15.1821 0.257486 13.3995 0.53666 11.6614C1.46083 5.90736 6.01875 1.3495 11.7728 0.425329C13.5109 0.146156 15.2935 0 17.1113 0C18.9291 0 20.7117 0.146156 22.4499 0.425329C28.2039 1.3495 32.7618 5.90736 33.686 11.6614C33.9652 13.3995 34.1113 15.1821 34.1113 17Z" fill="#0B5CFF"/>
<path d="M34.1113 17C34.1113 18.8179 33.9652 20.6005 33.686 22.3386C32.7618 28.0926 28.2039 32.6505 22.4499 33.5747C20.7117 33.8538 18.9291 34 17.1113 34C15.2935 34 13.5109 33.8538 11.7728 33.5747C6.01875 32.6505 1.46083 28.0926 0.53666 22.3386C0.257486 20.6005 0.111328 18.8179 0.111328 17C0.111328 15.1821 0.257486 13.3995 0.53666 11.6614C1.46083 5.90736 6.01875 1.3495 11.7728 0.425329C13.5109 0.146156 15.2935 0 17.1113 0C18.9291 0 20.7117 0.146156 22.4499 0.425329C28.2039 1.3495 32.7618 5.90736 33.686 11.6614C33.9652 13.3995 34.1113 15.1821 34.1113 17Z" fill="url(#paint0_radial_5312_25326)"/>
<path d="M34.1112 17C34.1112 18.8179 33.9651 20.6005 33.6859 22.3386C32.7617 28.0926 28.2038 32.6505 22.4498 33.5746C20.7116 33.8538 18.9291 33.9999 17.1113 33.9999C15.2935 33.9999 13.5109 33.8538 11.7727 33.5746C6.01863 32.6505 1.46077 28.0926 0.536599 22.3386C0.257426 20.6004 0.111328 18.8179 0.111328 17C0.111328 15.1822 0.257426 13.3995 0.536599 11.6613C1.46083 5.90737 6.01869 1.34938 11.7727 0.425271C13.5109 0.146098 15.2934 0 17.1113 0C18.9291 0 20.7117 0.146098 22.4498 0.425271C28.2039 1.34938 32.7617 5.90737 33.6859 11.6613C33.9651 13.3995 34.1112 15.182 34.1112 17Z" fill="url(#paint1_radial_5312_25326)"/>
<path d="M26.827 13.6888V21.8571C26.827 23.1983 25.7397 24.2857 24.3984 24.2857H9.82701C8.48575 24.2857 7.39844 23.1983 7.39844 21.8571V13.6881L14.4862 19.2579C15.2594 19.8662 16.1861 20.171 17.1128 20.171C18.0396 20.171 18.9663 19.8662 19.7394 19.2591L26.827 13.6888ZM15.2368 18.3033C16.3408 19.1737 17.8848 19.1725 18.9888 18.3045L26.827 12.1434C26.827 10.8021 25.7397 9.71423 24.3984 9.71423H9.82701C8.48575 9.71423 7.39844 10.8015 7.39844 12.1428L15.2368 18.3033Z" fill="white"/>
<defs>
<radialGradient id="paint0_radial_5312_25326" cx="0" cy="0" r="1" gradientUnits="userSpaceOnUse" gradientTransform="translate(17.1113 15.0244) scale(22.9205 19.1565)">
<stop offset="0.82" stop-color="#0B5CFF" stop-opacity="0"/>
<stop offset="0.98" stop-color="#003CB3"/>
</radialGradient>
<radialGradient id="paint1_radial_5312_25326" cx="0" cy="0" r="1" gradientUnits="userSpaceOnUse" gradientTransform="translate(17.1113 18.9684) scale(22.9122 19.1496)">
<stop offset="0.8" stop-color="#0B5CFF" stop-opacity="0"/>
<stop offset="1" stop-color="#71A5F1"/>
</radialGradient>
</defs>
</svg>
