<svg width="34" height="34" viewBox="0 0 34 34" fill="none" xmlns="http://www.w3.org/2000/svg">
<path d="M34 17C34 18.8179 33.8539 20.6005 33.5747 22.3386C32.6505 28.0926 28.0926 32.6505 22.3386 33.5747C20.6004 33.8538 18.8178 34 17 34C15.1822 34 13.3996 33.8538 11.6615 33.5747C5.90743 32.6505 1.3495 28.0926 0.425332 22.3386C0.146158 20.6005 0 18.8179 0 17C0 15.1821 0.146158 13.3995 0.425332 11.6614C1.3495 5.90736 5.90743 1.3495 11.6615 0.425329C13.3996 0.146156 15.1822 0 17 0C18.8178 0 20.6004 0.146156 22.3386 0.425329C28.0926 1.3495 32.6505 5.90736 33.5747 11.6614C33.8539 13.3995 34 15.1821 34 17Z" fill="#0B5CFF"/>
<path d="M34 17C34 18.8179 33.8539 20.6005 33.5747 22.3386C32.6505 28.0926 28.0926 32.6505 22.3386 33.5747C20.6004 33.8538 18.8178 34 17 34C15.1822 34 13.3996 33.8538 11.6615 33.5747C5.90743 32.6505 1.3495 28.0926 0.425332 22.3386C0.146158 20.6005 0 18.8179 0 17C0 15.1821 0.146158 13.3995 0.425332 11.6614C1.3495 5.90736 5.90743 1.3495 11.6615 0.425329C13.3996 0.146156 15.1822 0 17 0C18.8178 0 20.6004 0.146156 22.3386 0.425329C28.0926 1.3495 32.6505 5.90736 33.5747 11.6614C33.8539 13.3995 34 15.1821 34 17Z" fill="url(#paint0_radial_5312_25324)"/>
<path d="M33.9999 17C33.9999 18.8179 33.8537 20.6005 33.5746 22.3386C32.6503 28.0926 28.0925 32.6505 22.3384 33.5746C20.6003 33.8538 18.8177 34 16.9999 34C15.1822 34 13.3995 33.8538 11.6614 33.5746C5.9073 32.6505 1.34944 28.0926 0.425271 22.3386C0.146098 20.6004 0 18.8179 0 17C0 15.1822 0.146098 13.3995 0.425271 11.6613C1.3495 5.90737 5.90737 1.34938 11.6614 0.425271C13.3996 0.146098 15.1821 0 16.9999 0C18.8178 0 20.6004 0.146098 22.3384 0.425271C28.0925 1.34938 32.6504 5.90737 33.5746 11.6613C33.8537 13.3995 33.9999 15.182 33.9999 17Z" fill="url(#paint1_radial_5312_25324)"/>
<path d="M17.7914 22.1135L16.2906 22.8639C15.6193 23.1995 15.6193 24.1574 16.2905 24.493L17.7914 25.2435C18.1286 25.4121 18.5005 25.5 18.8776 25.5H25.5014C26.172 25.5 26.7157 24.9563 26.7157 24.2857V23.0714C26.7157 22.4008 26.172 21.8571 25.5014 21.8571H18.8775C18.5005 21.8571 18.1286 21.9449 17.7914 22.1135ZM26.7157 12.1428V20.6419H18.8775C18.315 20.6419 17.7517 20.7749 17.2486 21.0263L15.7475 21.7769C15.0231 22.139 14.5729 22.8673 14.5728 23.6773V24.2857H9.71568C8.37444 24.2857 7.28711 23.1984 7.28711 21.8571V12.1428C7.28711 10.8015 8.37444 9.71423 9.71568 9.71423H24.2871C25.6284 9.71423 26.7157 10.8015 26.7157 12.1428Z" fill="white"/>
<defs>
<radialGradient id="paint0_radial_5312_25324" cx="0" cy="0" r="1" gradientUnits="userSpaceOnUse" gradientTransform="translate(17 15.0244) scale(22.9205 19.1565)">
<stop offset="0.82" stop-color="#0B5CFF" stop-opacity="0"/>
<stop offset="0.98" stop-color="#003CB3"/>
</radialGradient>
<radialGradient id="paint1_radial_5312_25324" cx="0" cy="0" r="1" gradientUnits="userSpaceOnUse" gradientTransform="translate(16.9999 18.9685) scale(22.9122 19.1496)">
<stop offset="0.8" stop-color="#0B5CFF" stop-opacity="0"/>
<stop offset="1" stop-color="#71A5F1"/>
</radialGradient>
</defs>
</svg>
