<svg width="35" height="34" viewBox="0 0 35 34" fill="none" xmlns="http://www.w3.org/2000/svg">
<path d="M34.1113 17C34.1113 18.8179 33.9652 20.6005 33.686 22.3386C32.7618 28.0926 28.2039 32.6505 22.4499 33.5747C20.7117 33.8538 18.9291 34 17.1113 34C15.2935 34 13.5109 33.8538 11.7728 33.5747C6.01875 32.6505 1.46083 28.0926 0.53666 22.3386C0.257486 20.6005 0.111328 18.8179 0.111328 17C0.111328 15.1821 0.257486 13.3995 0.53666 11.6614C1.46083 5.90736 6.01875 1.3495 11.7728 0.425329C13.5109 0.146156 15.2935 0 17.1113 0C18.9291 0 20.7117 0.146156 22.4499 0.425329C28.2039 1.3495 32.7618 5.90736 33.686 11.6614C33.9652 13.3995 34.1113 15.1821 34.1113 17Z" fill="#0B5CFF"/>
<path d="M34.1113 17C34.1113 18.8179 33.9652 20.6005 33.686 22.3386C32.7618 28.0926 28.2039 32.6505 22.4499 33.5747C20.7117 33.8538 18.9291 34 17.1113 34C15.2935 34 13.5109 33.8538 11.7728 33.5747C6.01875 32.6505 1.46083 28.0926 0.53666 22.3386C0.257486 20.6005 0.111328 18.8179 0.111328 17C0.111328 15.1821 0.257486 13.3995 0.53666 11.6614C1.46083 5.90736 6.01875 1.3495 11.7728 0.425329C13.5109 0.146156 15.2935 0 17.1113 0C18.9291 0 20.7117 0.146156 22.4499 0.425329C28.2039 1.3495 32.7618 5.90736 33.686 11.6614C33.9652 13.3995 34.1113 15.1821 34.1113 17Z" fill="url(#paint0_radial_5312_25322)"/>
<path d="M34.1112 17C34.1112 18.8179 33.9651 20.6005 33.6859 22.3386C32.7617 28.0926 28.2038 32.6505 22.4498 33.5746C20.7116 33.8538 18.9291 34 17.1113 34C15.2935 34 13.5109 33.8538 11.7727 33.5746C6.01863 32.6505 1.46077 28.0926 0.536599 22.3386C0.257426 20.6004 0.111328 18.8179 0.111328 17C0.111328 15.1822 0.257426 13.3995 0.536599 11.6613C1.46083 5.90737 6.01869 1.34938 11.7727 0.425271C13.5109 0.146098 15.2934 0 17.1113 0C18.9291 0 20.7117 0.146098 22.4498 0.425271C28.2039 1.34938 32.7617 5.90737 33.6859 11.6613C33.9651 13.3995 34.1112 15.182 34.1112 17Z" fill="url(#paint1_radial_5312_25322)"/>
<path d="M18.327 7.28571H9.82701C8.48575 7.28571 7.39844 8.37301 7.39844 9.71428V14.5714C7.39844 15.9127 8.48575 17 9.82701 17L9.82708 19.4274C9.82708 19.9682 10.481 20.2391 10.8635 19.8566L13.1867 17.5335C13.5283 17.1919 13.9915 17 14.4746 17H18.327C19.6683 17 20.7556 15.9127 20.7556 14.5714V9.71428C20.7556 8.37301 19.6683 7.28571 18.327 7.28571ZM26.827 16.3928V21.25C26.827 22.5912 25.7397 23.6786 24.3984 23.6786L24.3984 26.1059C24.3984 26.6468 23.7444 26.9177 23.362 26.5352L21.0388 24.212C20.6972 23.8704 20.2339 23.6786 19.7508 23.6786H15.8984C14.5572 23.6786 13.4699 22.5912 13.4699 21.25V19.5002C13.4699 19.1592 13.6053 18.8321 13.8465 18.5909C14.0877 18.3497 14.4148 18.2143 14.7558 18.2143H18.327C20.3389 18.2143 21.9699 16.5833 21.9699 14.5714V13.9643H24.3984C25.7397 13.9643 26.827 15.0516 26.827 16.3928Z" fill="white"/>
<defs>
<radialGradient id="paint0_radial_5312_25322" cx="0" cy="0" r="1" gradientUnits="userSpaceOnUse" gradientTransform="translate(17.1113 15.0244) scale(22.9205 19.1565)">
<stop offset="0.82" stop-color="#0B5CFF" stop-opacity="0"/>
<stop offset="0.98" stop-color="#003CB3"/>
</radialGradient>
<radialGradient id="paint1_radial_5312_25322" cx="0" cy="0" r="1" gradientUnits="userSpaceOnUse" gradientTransform="translate(17.1113 18.9685) scale(22.9122 19.1496)">
<stop offset="0.8" stop-color="#0B5CFF" stop-opacity="0"/>
<stop offset="1" stop-color="#71A5F1"/>
</radialGradient>
</defs>
</svg>
