<svg width="35" height="34" viewBox="0 0 35 34" fill="none" xmlns="http://www.w3.org/2000/svg">
<path d="M34.1113 17C34.1113 18.8179 33.9652 20.6005 33.686 22.3386C32.7618 28.0926 28.2039 32.6505 22.4499 33.5747C20.7117 33.8538 18.9291 34 17.1113 34C15.2935 34 13.5109 33.8538 11.7728 33.5747C6.01875 32.6505 1.46083 28.0926 0.53666 22.3386C0.257486 20.6005 0.111328 18.8179 0.111328 17C0.111328 15.1821 0.257486 13.3995 0.53666 11.6614C1.46083 5.90736 6.01875 1.3495 11.7728 0.425329C13.5109 0.146156 15.2935 0 17.1113 0C18.9291 0 20.7117 0.146156 22.4499 0.425329C28.2039 1.3495 32.7618 5.90736 33.686 11.6614C33.9652 13.3995 34.1113 15.1821 34.1113 17Z" fill="#0B5CFF"/>
<path d="M34.1113 17C34.1113 18.8179 33.9652 20.6005 33.686 22.3386C32.7618 28.0926 28.2039 32.6505 22.4499 33.5747C20.7117 33.8538 18.9291 34 17.1113 34C15.2935 34 13.5109 33.8538 11.7728 33.5747C6.01875 32.6505 1.46083 28.0926 0.53666 22.3386C0.257486 20.6005 0.111328 18.8179 0.111328 17C0.111328 15.1821 0.257486 13.3995 0.53666 11.6614C1.46083 5.90736 6.01875 1.3495 11.7728 0.425329C13.5109 0.146156 15.2935 0 17.1113 0C18.9291 0 20.7117 0.146156 22.4499 0.425329C28.2039 1.3495 32.7618 5.90736 33.686 11.6614C33.9652 13.3995 34.1113 15.1821 34.1113 17Z" fill="url(#paint0_radial_5312_25327)"/>
<path d="M34.1112 17C34.1112 18.8179 33.9651 20.6005 33.6859 22.3386C32.7617 28.0926 28.2038 32.6505 22.4498 33.5746C20.7116 33.8538 18.9291 33.9999 17.1113 33.9999C15.2935 33.9999 13.5109 33.8538 11.7727 33.5746C6.01863 32.6505 1.46077 28.0926 0.536599 22.3386C0.257426 20.6004 0.111328 18.8179 0.111328 17C0.111328 15.1822 0.257426 13.3995 0.536599 11.6613C1.46083 5.90737 6.01869 1.34938 11.7727 0.425271C13.5109 0.146098 15.2934 0 17.1113 0C18.9291 0 20.7117 0.146098 22.4498 0.425271C28.2039 1.34938 32.7617 5.90737 33.6859 11.6613C33.9651 13.3995 34.1112 15.182 34.1112 17Z" fill="url(#paint1_radial_5312_25327)"/>
<path d="M21.6556 12.457C20.7493 9.46483 17.9722 7.28564 14.6842 7.28564C10.6604 7.28564 7.39844 10.5476 7.39844 14.5714C7.39844 17.8595 9.57756 20.6365 12.5697 21.5429C13.4763 24.535 16.2532 26.7142 19.5412 26.7142C23.5651 26.7142 26.827 23.4523 26.827 19.4285C26.827 16.1403 24.6477 13.3634 21.6556 12.457ZM21.9698 18.8213C21.9698 20.4979 20.6107 21.857 18.9341 21.857H15.2913C13.6147 21.857 12.2556 20.4979 12.2556 18.8213V15.1785C12.2556 13.502 13.6147 12.1428 15.2913 12.1428H18.9341C20.6107 12.1428 21.9698 13.502 21.9698 15.1785V18.8213ZM17.1128 16.9999C18.035 16.9999 18.7818 16.2523 18.7818 15.3303C18.7818 14.4082 18.0351 13.6606 17.1128 13.6606C16.1905 13.6606 15.4425 14.4082 15.4425 15.3303C15.4425 16.2523 16.1905 16.9999 17.1128 16.9999ZM17.1128 17.8348C15.3777 17.8348 14.0771 18.5823 14.0771 19.5044C14.0771 19.9654 14.5254 20.3392 14.9442 20.3392H19.2816C19.7006 20.3392 20.1485 19.9654 20.1485 19.5044C20.1485 18.5823 18.8481 17.8348 17.1128 17.8348Z" fill="white"/>
<defs>
<radialGradient id="paint0_radial_5312_25327" cx="0" cy="0" r="1" gradientUnits="userSpaceOnUse" gradientTransform="translate(17.1113 15.0244) scale(22.9205 19.1565)">
<stop offset="0.82" stop-color="#0B5CFF" stop-opacity="0"/>
<stop offset="0.98" stop-color="#003CB3"/>
</radialGradient>
<radialGradient id="paint1_radial_5312_25327" cx="0" cy="0" r="1" gradientUnits="userSpaceOnUse" gradientTransform="translate(17.1113 18.9684) scale(22.9122 19.1496)">
<stop offset="0.8" stop-color="#0B5CFF" stop-opacity="0"/>
<stop offset="1" stop-color="#71A5F1"/>
</radialGradient>
</defs>
</svg>
