<svg width="35" height="34" viewBox="0 0 35 34" fill="none" xmlns="http://www.w3.org/2000/svg">
<path d="M34.1113 17C34.1113 18.8179 33.9652 20.6005 33.686 22.3386C32.7618 28.0926 28.2039 32.6505 22.4499 33.5747C20.7117 33.8538 18.9291 34 17.1113 34C15.2935 34 13.5109 33.8538 11.7728 33.5747C6.01875 32.6505 1.46083 28.0926 0.53666 22.3386C0.257486 20.6005 0.111328 18.8179 0.111328 17C0.111328 15.1821 0.257486 13.3995 0.53666 11.6614C1.46083 5.90736 6.01875 1.3495 11.7728 0.425329C13.5109 0.146156 15.2935 0 17.1113 0C18.9291 0 20.7117 0.146156 22.4499 0.425329C28.2039 1.3495 32.7618 5.90736 33.686 11.6614C33.9652 13.3995 34.1113 15.1821 34.1113 17Z" fill="#0B5CFF"/>
<path d="M34.1113 17C34.1113 18.8179 33.9652 20.6005 33.686 22.3386C32.7618 28.0926 28.2039 32.6505 22.4499 33.5747C20.7117 33.8538 18.9291 34 17.1113 34C15.2935 34 13.5109 33.8538 11.7728 33.5747C6.01875 32.6505 1.46083 28.0926 0.53666 22.3386C0.257486 20.6005 0.111328 18.8179 0.111328 17C0.111328 15.1821 0.257486 13.3995 0.53666 11.6614C1.46083 5.90736 6.01875 1.3495 11.7728 0.425329C13.5109 0.146156 15.2935 0 17.1113 0C18.9291 0 20.7117 0.146156 22.4499 0.425329C28.2039 1.3495 32.7618 5.90736 33.686 11.6614C33.9652 13.3995 34.1113 15.1821 34.1113 17Z" fill="url(#paint0_radial_5312_25323)"/>
<path d="M34.1112 17C34.1112 18.8179 33.9651 20.6005 33.6859 22.3386C32.7617 28.0926 28.2038 32.6505 22.4498 33.5746C20.7116 33.8538 18.9291 34 17.1113 34C15.2935 34 13.5109 33.8538 11.7727 33.5746C6.01863 32.6505 1.46077 28.0926 0.536599 22.3386C0.257426 20.6004 0.111328 18.8179 0.111328 17C0.111328 15.1822 0.257426 13.3995 0.536599 11.6613C1.46083 5.90737 6.01869 1.34938 11.7727 0.425271C13.5109 0.146098 15.2934 0 17.1113 0C18.9291 0 20.7117 0.146098 22.4498 0.425271C28.2039 1.34938 32.7617 5.90737 33.6859 11.6613C33.9651 13.3995 34.1112 15.182 34.1112 17Z" fill="url(#paint1_radial_5312_25323)"/>
<path d="M25.6114 20.7188V22.3124C25.6114 24.0647 24.1949 25.4844 22.4433 25.4976V25.5C22.4379 25.5 22.4327 25.4992 22.4273 25.4992C22.4246 25.4992 22.4221 25.5 22.4193 25.5V25.4988C14.7991 25.4857 8.62384 19.3205 8.61133 11.7108C8.60843 9.94573 10.0358 8.5 11.8034 8.5H13.3992C14.5745 8.5 15.5272 9.45139 15.5272 10.625V11.8697C15.5272 12.4334 15.303 12.9739 14.9039 13.3725L13.7875 14.4874C13.5627 14.7119 13.4829 15.0527 13.6047 15.346C14.5723 17.6746 16.4319 19.535 18.7615 20.5058C19.0554 20.6283 19.3975 20.5488 19.6227 20.3239L20.7319 19.2162C21.131 18.8177 21.6722 18.5938 22.2365 18.5938H23.4833C24.6586 18.5938 25.6114 19.5452 25.6114 20.7188Z" fill="white"/>
<defs>
<radialGradient id="paint0_radial_5312_25323" cx="0" cy="0" r="1" gradientUnits="userSpaceOnUse" gradientTransform="translate(17.1113 15.0244) scale(22.9205 19.1565)">
<stop offset="0.82" stop-color="#0B5CFF" stop-opacity="0"/>
<stop offset="0.98" stop-color="#003CB3"/>
</radialGradient>
<radialGradient id="paint1_radial_5312_25323" cx="0" cy="0" r="1" gradientUnits="userSpaceOnUse" gradientTransform="translate(17.1113 18.9685) scale(22.9122 19.1496)">
<stop offset="0.8" stop-color="#0B5CFF" stop-opacity="0"/>
<stop offset="1" stop-color="#71A5F1"/>
</radialGradient>
</defs>
</svg>
